<svg version="1" xmlns="http://www.w3.org/2000/svg" width="21.333" height="21.333" viewBox="0 0 16.000000 16.000000"><path d="M5.052.012C3.374.082 2.732.16 2.07.375.802.787.293 1.628.103 3.621.034 4.357.018 5.023.007 7.738c-.014 3.256.007 4.085.121 5.016.206 1.685.759 2.473 2.003 2.855.594.183 1.305.274 2.59.334 1.012.048 5.628.073 6.618.036 1.25-.045 1.998-.144 2.583-.336 1.268-.418 1.785-1.245 1.977-3.152.076-.764.087-1.175.096-3.966.014-3.365-.011-4.348-.132-5.304C15.583 1.02 14.81.325 12.379.09 11.695.025 11.197.014 8.264.01 6.593.007 5.146.01 5.052.012zm6.044 3.255c1 .096 1.797.469 2.449 1.148.306.317.505.6.708 1.012.366.74.51 1.4.53 2.44.017.8-.031 1.3-.19 1.92-.395 1.563-1.492 2.65-3.012 2.983l-.277.06-1.273.008-1.276.01V3.244h1.047c.574 0 1.157.012 1.294.023zM3.434 5.743a.94.94 0 0 1 .39.4c.071.153.071.496 0 .649a.86.86 0 0 1-.402.398c-.123.057-.169.066-.347.066-.188 0-.222-.007-.36-.075-.29-.142-.436-.387-.436-.727 0-.215.06-.378.201-.53.172-.193.343-.259.631-.25a.65.65 0 0 1 .323.069zm-.014 5.694a.863.863 0 0 1 .39.375.86.86 0 0 1 .028.633.882.882 0 0 1-.407.44c-.114.056-.153.063-.356.063-.188 0-.25-.009-.336-.05a.87.87 0 0 1-.398-.402.849.849 0 0 1 .126-.867.846.846 0 0 1 .418-.247c.153-.032.4-.007.535.055z"/><path d="M9.853 8.042v3.843h.546c.793 0 1.072-.05 1.545-.283.782-.387 1.35-1.212 1.564-2.277.09-.441.105-.638.105-1.28-.002-.709-.03-.967-.16-1.475-.286-1.106-.953-1.91-1.84-2.213-.345-.116-.476-.134-1.136-.146L9.853 4.2v3.842z"/></svg>